<?xml version="1.0" standalone="no"?>
<!DOCTYPE svg PUBLIC "-//W3C//DTD SVG 20010904//EN"
 "http://www.w3.org/TR/2001/REC-SVG-20010904/DTD/svg10.dtd">
<svg version="1.0" xmlns="http://www.w3.org/2000/svg"
 width="512.000000pt" height="512.000000pt" viewBox="0 0 512.000000 512.000000"
 preserveAspectRatio="xMidYMid meet">
<metadata>
Created by potrace 1.16, written by Peter Selinger 2001-2019
</metadata>
<g transform="translate(0.000000,512.000000) scale(0.100000,-0.100000)"
fill="#000000" stroke="none">
<path d="M391 4464 c-179 -48 -329 -200 -376 -379 -13 -52 -15 -241 -15 -1525
0 -1616 -4 -1518 63 -1644 40 -78 135 -173 213 -213 128 -68 -39 -63 2284 -63
2323 0 2156 -5 2284 63 78 40 173 135 213 213 67 126 63 28 63 1644 0 1616 4
1518 -63 1644 -40 78 -135 173 -213 213 -128 68 39 63 -2289 62 -1810 0 -2118
-2 -2164 -15z m4282 -215 c20 -5 37 -14 37 -19 0 -5 -394 -440 -874 -967 -573
-628 -898 -976 -943 -1010 -41 -32 -97 -63 -143 -80 -66 -25 -89 -28 -190 -28
-101 0 -124 3 -190 28 -46 17 -102 48 -143 80 -44 34 -373 386 -942 1010 -481
526 -875 961 -875 967 0 5 15 14 33 19 47 13 4181 14 4230 0z m-3621 -1063
l704 -770 -748 -683 c-411 -376 -752 -683 -757 -683 -6 0 -15 17 -20 38 -15
53 -15 2892 0 2946 l11 39 53 -59 c29 -32 370 -405 757 -828z m3846 -604 c2
-1424 0 -1532 -28 -1532 -14 0 -1502 1360 -1498 1370 2 5 340 378 753 829 632
691 751 818 760 803 7 -11 11 -504 13 -1470z m-2736 -561 c169 -99 362 -133
546 -95 163 33 267 91 407 226 l100 96 747 -681 c628 -573 744 -683 730 -692
-23 -14 -4240 -14 -4264 0 -14 8 110 126 730 692 l747 681 100 -96 c55 -53
126 -112 157 -131z"/>
</g>
</svg>
